<svg width="48" height="49" viewBox="0 0 48 49" fill="none" xmlns="http://www.w3.org/2000/svg">
<path fill-rule="evenodd" clip-rule="evenodd" d="M16.5255 12.3771C17.508 12.3589 18.4892 12.4596 19.4475 12.6771C20.2544 12.8533 21.0205 13.1811 21.705 13.6431C22.3372 14.1025 22.8375 14.7202 23.1555 15.4341C23.521 16.312 23.6973 17.257 23.673 18.2076C23.7145 19.2514 23.4479 20.2843 22.9065 21.1776C22.3369 22.0213 21.5496 22.6951 20.628 23.1276C21.8786 23.4648 22.9679 24.2371 23.7 25.3056C24.4028 26.4378 24.756 27.7521 24.7155 29.0841C24.7387 30.1461 24.5191 31.1993 24.0735 32.1636C23.6616 33.0048 23.0585 33.7378 22.3125 34.3041C21.5444 34.8642 20.6801 35.2785 19.7625 35.5266C18.8109 35.7899 17.8278 35.9221 16.8405 35.9196H6V12.3771H16.5255ZM15.9 21.8991C16.672 21.9309 17.4319 21.6998 18.0555 21.2436C18.3541 20.9777 18.5865 20.6457 18.7339 20.274C18.8813 19.9024 18.9397 19.5014 18.9045 19.1031C18.9245 18.6379 18.8319 18.1748 18.6345 17.7531C18.4671 17.4173 18.2068 17.1367 17.8845 16.9446C17.5581 16.7331 17.1914 16.5916 16.8075 16.5291C16.391 16.4484 15.9672 16.4117 15.543 16.4196H10.911V21.9201H15.9V21.8991ZM16.17 31.9221C16.6369 31.9284 17.1028 31.8781 17.5575 31.7721C17.9731 31.6803 18.3672 31.5098 18.7185 31.2696C19.0627 31.0296 19.3408 30.7066 19.527 30.3306C19.7429 29.8511 19.8422 29.3273 19.8165 28.8021C19.8633 28.3235 19.7999 27.8405 19.6312 27.3902C19.4624 26.9398 19.1928 26.5341 18.843 26.2041C18.1016 25.658 17.1929 25.3875 16.2735 25.4391H10.911V31.9221H16.17Z" fill="black"/>
<path fill-rule="evenodd" clip-rule="evenodd" d="M31.71 31.8351C32.0955 32.1924 32.5495 32.4676 33.0446 32.6439C33.5397 32.8203 34.0655 32.8942 34.59 32.8611C35.4215 32.8821 36.2369 32.6291 36.9105 32.1411C37.4585 31.7848 37.8735 31.2575 38.091 30.6411H42.0075C41.5902 32.3958 40.5712 33.9488 39.1275 35.0301C37.7426 35.9493 36.1059 36.4149 34.4445 36.3621C33.2587 36.3777 32.0819 36.1547 30.984 35.7066C29.9908 35.2924 29.1001 34.6663 28.374 33.8721C27.6507 33.0399 27.095 32.0757 26.7375 31.0326C26.3363 29.8666 26.1399 28.64 26.157 27.4071C26.1497 26.1948 26.3527 24.9905 26.757 23.8476C27.3002 22.2398 28.3387 20.8453 29.7236 19.8644C31.1085 18.8835 32.7685 18.3665 34.4655 18.3876C35.7184 18.3614 36.9573 18.6546 38.0655 19.2396C39.0673 19.7889 39.9314 20.5582 40.593 21.4896C41.2698 22.4669 41.7549 23.5638 42.0225 24.7221C42.316 25.9658 42.4207 27.2467 42.333 28.5216H30.6675C30.573 29.7194 30.9467 30.9072 31.71 31.8351ZM36.828 22.8816C36.5016 22.5551 36.1089 22.3023 35.6766 22.1403C35.2442 21.9784 34.7821 21.9109 34.3215 21.9426C33.7104 21.9193 33.1037 22.0547 32.5605 22.3356C32.1299 22.5727 31.7497 22.8917 31.4415 23.2746C31.1684 23.6336 30.9648 24.0407 30.8415 24.4746C30.7304 24.8365 30.6609 25.2099 30.6345 25.5876H37.86C37.7971 24.6031 37.4384 23.6605 36.831 22.8831L36.828 22.8816Z" fill="black"/>
<path d="M29.703 13.9491H38.757V16.2636H29.703V13.9491Z" fill="black"/>
</svg>
