<svg width="1001" height="145" viewBox="0 0 1001 145" fill="none" xmlns="http://www.w3.org/2000/svg">
<path d="M324.055 0.722656C334.441 0.722658 344.048 2.41067 352.876 5.78613C361.834 9.0318 369.234 13.7058 375.076 19.8076L350.539 44.1494C346.255 39.9951 341.971 36.9444 337.687 34.9971C333.402 32.9198 328.728 31.8809 323.665 31.8809C319.64 31.8809 316.394 32.5299 313.928 33.8281C311.591 35.1264 310.423 37.0745 310.423 39.6709C310.423 42.397 311.591 44.6689 313.928 46.4863C316.265 48.1741 319.316 49.7321 323.081 51.1602C326.976 52.5882 331.195 54.0817 335.739 55.6396C340.413 57.1976 345.022 59.0801 349.565 61.2871C354.109 63.3643 358.264 66.0903 362.029 69.4658C365.924 72.7115 369.04 76.801 371.377 81.7344C373.714 86.6677 374.882 92.6399 374.882 99.6504C374.882 113.801 369.819 124.772 359.692 132.562C349.696 140.221 335.544 144.051 317.238 144.051C305.424 144.051 295.103 142.364 286.275 138.988C277.577 135.483 269.527 129.965 262.127 122.436L286.47 98.0928C291.533 102.896 296.856 106.596 302.438 109.192C308.021 111.659 313.993 112.893 320.354 112.893C325.677 112.893 329.702 112.114 332.429 110.556C335.155 108.868 336.518 106.596 336.518 103.74C336.518 100.884 335.35 98.5471 333.013 96.7295C330.676 94.7821 327.56 93.0941 323.665 91.666C319.9 90.1081 315.681 88.5501 311.007 86.9922C306.463 85.4343 301.919 83.5517 297.375 81.3447C292.831 79.1377 288.611 76.4761 284.717 73.3604C280.952 70.1147 277.901 66.155 275.564 61.4814C273.228 56.6779 272.06 50.8358 272.06 43.9551C272.06 34.9972 274.201 27.2725 278.485 20.7812C282.77 14.2899 288.807 9.35596 296.597 5.98047C304.386 2.47525 313.539 0.722656 324.055 0.722656ZM524.149 0.722656C537.002 0.72268 548.492 2.92969 558.618 7.34375C568.874 11.7578 577.183 17.7299 583.545 25.2598L557.255 51.5498C552.451 45.9673 547.453 41.8133 542.26 39.0869C537.067 36.3606 530.836 34.9971 523.565 34.9971C516.685 34.9971 510.453 36.5551 504.87 39.6709C499.288 42.6569 494.808 46.9409 491.433 52.5234C488.187 58.106 486.564 64.6625 486.564 72.1924C486.564 79.7223 488.058 86.3433 491.044 92.0557C494.16 97.6381 498.444 101.988 503.896 105.104C509.349 108.219 515.71 109.777 522.98 109.777C529.991 109.777 535.899 108.414 540.702 105.688C545.506 102.961 549.141 99.0662 551.607 94.0029C551.92 93.3925 552.214 92.7687 552.489 92.1318L517.723 91.082V59.9238H594.646V65.7656C594.646 82.3833 591.594 96.5344 585.492 108.219C579.52 119.903 571.081 128.797 560.176 134.898C549.4 141 536.807 144.051 522.396 144.051C511.621 144.051 501.624 142.298 492.406 138.793C483.319 135.158 475.335 130.095 468.454 123.604C461.703 117.112 456.445 109.518 452.68 100.819C448.915 92.121 447.032 82.643 447.032 72.3867C447.032 62.0007 448.979 52.4581 452.874 43.7598C456.899 35.0615 462.417 27.5314 469.428 21.1699C476.568 14.6788 484.812 9.68102 494.159 6.17578C503.507 2.54064 513.504 0.722656 524.149 0.722656ZM58.5859 3.05957C69.4914 3.05957 79.4883 4.68207 88.5762 7.92773C97.7938 11.1734 105.778 15.8474 112.529 21.9492C119.28 28.051 124.473 35.3866 128.108 43.9551C131.873 52.3937 133.756 61.8709 133.756 72.3867C133.756 82.9026 131.873 92.4451 128.108 101.014C124.473 109.452 119.28 116.722 112.529 122.824C105.778 128.926 97.8584 133.6 88.7705 136.846C79.6827 140.091 69.7511 141.715 58.9756 141.715H0.164062V3.05957H58.5859ZM252.558 35.3867H186.735V55.25H246.521V86.7979H186.735V109.388H253.726V141.715H147.787V3.05957H252.558V35.3867ZM431.921 141.715H392.973V3.05957H431.921V141.715ZM694.912 76.4766V3.05957H733.859V141.715H704.648L648.174 70.7451V141.715H609.227V3.05957H636.49L694.912 76.4766ZM861.572 35.3867H795.751V55.25H855.536V86.7979H795.751V109.388H862.741V141.715H756.803V3.05957H861.572V35.3867ZM942.521 3.05957C952.128 3.05957 960.567 4.81207 967.837 8.31738C975.107 11.8227 980.819 16.6913 984.974 22.9229C989.128 29.1544 991.206 36.4247 991.206 44.7334C991.206 53.0423 989.064 60.3132 984.779 66.5449C980.625 72.7765 974.783 77.6451 967.253 81.1504C964.841 82.2733 962.288 83.2143 959.596 83.9775L1000.16 141.715H955.958L920.663 86.4082H920.125V141.715H881.178V3.05957H942.521ZM39.1123 108.608H58.5859C65.8561 108.608 72.1527 107.31 77.4756 104.714C82.7984 101.988 86.888 97.8979 89.7441 92.4453C92.6003 86.9926 94.0283 80.2416 94.0283 72.1924C94.0283 64.1431 92.5358 57.4567 89.5498 52.1338C86.6937 46.811 82.604 42.8514 77.2812 40.2549C72.0882 37.5285 65.8562 36.165 58.5859 36.165H39.1123V108.608ZM920.125 59.5342H936.289C941.612 59.5342 945.636 58.2359 948.362 55.6396C951.218 53.0432 952.647 49.6025 952.647 45.3184C952.647 41.0341 951.218 37.5936 948.362 34.9971C945.636 32.4007 941.612 31.1026 936.289 31.1025H920.125V59.5342Z" fill="#2D2D2D"/>
</svg>
