<svg width="413" height="96" viewBox="0 0 413 96" fill="none" xmlns="http://www.w3.org/2000/svg">
<g id="Eyes">
<path id="Eye_left" fill-rule="evenodd" clip-rule="evenodd" d="M0.164062 47.6495C1.22525 48.8902 2.58224 50.4218 4.22285 52.1664C8.71372 56.9421 15.3274 63.3116 23.8138 69.6811C40.7887 82.4221 65.2344 95.1476 95.1603 95.1476C125.086 95.1476 149.532 82.4221 166.507 69.6811C174.993 63.3116 181.607 56.9421 186.098 52.1664C187.738 50.4218 189.095 48.8902 190.157 47.6495C189.095 46.4087 187.738 44.8771 186.098 43.1325C181.607 38.3569 174.993 31.9874 166.507 25.6178C149.532 12.8769 125.086 0.151367 95.1603 0.151367C65.2344 0.151367 40.7887 12.8769 23.8138 25.6178C15.3274 31.9874 8.71372 38.3569 4.22285 43.1325C2.58224 44.8771 1.22525 46.4087 0.164062 47.6495Z" fill="white"/>
<path id="Eye_right" fill-rule="evenodd" clip-rule="evenodd" d="M412.674 47.6495C411.613 48.8902 410.256 50.4218 408.615 52.1664C404.124 56.9421 397.51 63.3116 389.024 69.6811C372.049 82.4221 347.603 95.1476 317.678 95.1476C287.752 95.1476 263.306 82.4221 246.331 69.6811C237.845 63.3116 231.231 56.9421 226.74 52.1664C225.1 50.4218 223.743 48.8902 222.681 47.6495C223.743 46.4087 225.1 44.8771 226.74 43.1325C231.231 38.3569 237.845 31.9874 246.331 25.6178C263.306 12.8769 287.752 0.151367 317.678 0.151367C347.603 0.151367 372.049 12.8769 389.024 25.6178C397.51 31.9874 404.124 38.3569 408.615 43.1325C410.256 44.8771 411.613 46.4087 412.674 47.6495Z" fill="white"/>
<path id="Pupil_left" d="M345.678 47.6494C345.678 63.1134 333.142 75.6494 317.678 75.6494C302.214 75.6494 289.678 63.1134 289.678 47.6494C289.678 32.1854 302.214 19.6494 317.678 19.6494C333.142 19.6494 345.678 32.1854 345.678 47.6494Z" fill="black"/>
<path id="Pupil_left_2" d="M123.16 47.6494C123.16 63.1134 110.624 75.6494 95.1602 75.6494C79.6962 75.6494 67.1602 63.1134 67.1602 47.6494C67.1602 32.1854 79.6962 19.6494 95.1602 19.6494C110.624 19.6494 123.16 32.1854 123.16 47.6494Z" fill="black"/>
</g>
</svg>
