<svg width="48" height="49" viewBox="0 0 48 49" fill="none" xmlns="http://www.w3.org/2000/svg">
<path d="M11.4546 16.4294C11.4947 16.0335 11.3437 15.6423 11.0482 15.3759L8.03732 11.7488V11.207H17.386L24.612 27.0547L30.9649 11.207H39.877V11.7488L37.3027 14.217C37.0808 14.3862 36.9707 14.6642 37.0167 14.9394V33.0746C36.9707 33.3498 37.0808 33.6279 37.3027 33.797L39.8168 36.2652V36.807H27.1712V36.2652L29.7756 33.7368C30.0315 33.481 30.0315 33.4057 30.0315 33.0144V18.3558L22.7905 36.7468H21.8119L13.3816 18.3558V30.6817C13.3113 31.1999 13.4834 31.7216 13.8483 32.0964L17.2355 36.205V36.7468H7.63086V36.205L11.0181 32.0964C11.3803 31.721 11.5423 31.1958 11.4546 30.6817V16.4294Z" fill="black"/>
</svg>
