<svg width="415" height="98" viewBox="0 0 415 98" fill="none" xmlns="http://www.w3.org/2000/svg">
<g id="Eyes">
<path id="Eye_left" fill-rule="evenodd" clip-rule="evenodd" d="M1.16406 48.6495C2.22525 49.8902 3.58224 51.4218 5.22285 53.1664C9.71372 57.9421 16.3274 64.3116 24.8138 70.6811C41.7887 83.4221 66.2344 96.1476 96.1603 96.1476C126.086 96.1476 150.532 83.4221 167.507 70.6811C175.993 64.3116 182.607 57.9421 187.098 53.1664C188.738 51.4218 190.095 49.8902 191.157 48.6495C190.095 47.4087 188.738 45.8771 187.098 44.1325C182.607 39.3569 175.993 32.9874 167.507 26.6178C150.532 13.8769 126.086 1.15137 96.1603 1.15137C66.2344 1.15137 41.7887 13.8769 24.8138 26.6178C16.3274 32.9874 9.71372 39.3569 5.22285 44.1325C3.58224 45.8771 2.22525 47.4087 1.16406 48.6495Z" fill="white" stroke="black" stroke-width="2" stroke-linejoin="round"/>
<path id="Eye_right" fill-rule="evenodd" clip-rule="evenodd" d="M413.674 48.6495C412.613 49.8902 411.256 51.4218 409.615 53.1664C405.124 57.9421 398.51 64.3116 390.024 70.6811C373.049 83.4221 348.603 96.1476 318.678 96.1476C288.752 96.1476 264.306 83.4221 247.331 70.6811C238.845 64.3116 232.231 57.9421 227.74 53.1664C226.1 51.4218 224.743 49.8902 223.681 48.6495C224.743 47.4087 226.1 45.8771 227.74 44.1325C232.231 39.3569 238.845 32.9874 247.331 26.6178C264.306 13.8769 288.752 1.15137 318.678 1.15137C348.603 1.15137 373.049 13.8769 390.024 26.6178C398.51 32.9874 405.124 39.3569 409.615 44.1325C411.256 45.8771 412.613 47.4087 413.674 48.6495Z" fill="white" stroke="black" stroke-width="2" stroke-linejoin="round"/>
<path id="Pupil_left" d="M348.678 48.6494C348.678 65.218 335.246 78.6494 318.678 78.6494C302.109 78.6494 288.678 65.218 288.678 48.6494C288.678 32.0809 302.109 18.6494 318.678 18.6494C335.246 18.6494 348.678 32.0809 348.678 48.6494Z" fill="black"/>
<path id="Pupil_left_2" d="M126.16 48.6494C126.16 65.218 112.729 78.6494 96.1602 78.6494C79.5916 78.6494 66.1602 65.218 66.1602 48.6494C66.1602 32.0809 79.5916 18.6494 96.1602 18.6494C112.729 18.6494 126.16 32.0809 126.16 48.6494Z" fill="black"/>
</g>
</svg>
