<svg width="48" height="49" viewBox="0 0 48 49" fill="none" xmlns="http://www.w3.org/2000/svg">
<path d="M24.0004 6.92188C19.2602 6.92188 18.6653 6.9426 16.8035 7.02733C14.9454 7.11242 13.6771 7.4066 12.5673 7.83824C11.4193 8.28406 10.4455 8.88042 9.47538 9.85097C8.5045 10.8211 7.90815 11.795 7.46089 12.9426C7.02818 14.0528 6.73364 15.3215 6.65001 17.179C6.56674 19.0408 6.54492 19.6361 6.54492 24.3764C6.54492 29.1168 6.56601 29.7099 6.65037 31.5717C6.73583 33.4299 7.03 34.6982 7.46126 35.8081C7.90743 36.9561 8.50377 37.9299 9.47429 38.9001C10.4441 39.871 11.4179 40.4688 12.5651 40.9146C13.6756 41.3462 14.9443 41.6404 16.8021 41.7255C18.6638 41.8102 19.2584 41.831 23.9982 41.831C28.7388 41.831 29.3319 41.8102 31.1936 41.7255C33.0518 41.6404 34.3215 41.3462 35.432 40.9146C36.5796 40.4688 37.552 39.871 38.5218 38.9001C39.4927 37.9299 40.089 36.9561 40.5363 35.8084C40.9653 34.6982 41.2599 33.4295 41.3471 31.5721C41.4308 29.7102 41.4526 29.1168 41.4526 24.3764C41.4526 19.6361 41.4308 19.0411 41.3471 17.1793C41.2599 15.3211 40.9653 14.0528 40.5363 12.943C40.089 11.795 39.4927 10.8211 38.5218 9.85097C37.5509 8.88006 36.58 8.28369 35.431 7.83824C34.3183 7.4066 33.0492 7.11242 31.1911 7.02733C29.3293 6.9426 28.7366 6.92188 23.9949 6.92188H24.0004ZM22.4346 10.0673C22.8993 10.0666 23.4179 10.0673 24.0004 10.0673C28.6606 10.0673 29.213 10.0841 31.0533 10.1677C32.755 10.2455 33.6786 10.5299 34.2939 10.7688C35.1084 11.0851 35.6891 11.4633 36.2997 12.0742C36.9105 12.6851 37.2887 13.267 37.6058 14.0815C37.8447 14.6961 38.1294 15.6197 38.2069 17.3215C38.2905 19.1615 38.3087 19.7142 38.3087 24.3724C38.3087 29.0306 38.2905 29.5833 38.2069 31.4233C38.1291 33.1251 37.8447 34.0488 37.6058 34.6633C37.2894 35.4779 36.9105 36.0579 36.2997 36.6684C35.6888 37.2793 35.1088 37.6575 34.2939 37.9739C33.6794 38.2139 32.755 38.4975 31.0533 38.5753C29.2133 38.659 28.6606 38.6771 24.0004 38.6771C19.3398 38.6771 18.7875 38.659 16.9475 38.5753C15.2457 38.4968 14.3221 38.2124 13.7065 37.9735C12.892 37.6571 12.3102 37.279 11.6993 36.6681C11.0884 36.0571 10.7103 35.4768 10.3932 34.6619C10.1543 34.0473 9.86955 33.1237 9.7921 31.4219C9.70846 29.5819 9.69174 29.0291 9.69174 24.3681C9.69174 19.707 9.70846 19.1571 9.7921 17.3171C9.86991 15.6153 10.1543 14.6917 10.3932 14.0764C10.7095 13.2619 11.0884 12.6801 11.6993 12.0691C12.3102 11.4582 12.892 11.0801 13.7065 10.763C14.3218 10.523 15.2457 10.2393 16.9475 10.1611C18.5576 10.0884 19.1816 10.0666 22.4346 10.063V10.0673ZM33.3172 12.9655C32.1609 12.9655 31.2227 13.9026 31.2227 15.0593C31.2227 16.2157 32.1609 17.1539 33.3172 17.1539C34.4735 17.1539 35.4117 16.2157 35.4117 15.0593C35.4117 13.903 34.4735 12.9648 33.3172 12.9648V12.9655ZM24.0004 15.4128C19.0504 15.4128 15.037 19.4262 15.037 24.3764C15.037 29.3266 19.0504 33.3382 24.0004 33.3382C28.9504 33.3382 32.9623 29.3266 32.9623 24.3764C32.9623 19.4262 28.9501 15.4128 24 15.4128H24.0004ZM24.0004 18.5582C27.2134 18.5582 29.8184 21.163 29.8184 24.3764C29.8184 27.5895 27.2134 30.1946 24.0004 30.1946C20.787 30.1946 18.1824 27.5895 18.1824 24.3764C18.1824 21.163 20.787 18.5582 24.0004 18.5582Z" fill="black"/>
</svg>
