<svg width="48" height="49" viewBox="0 0 48 49" fill="none" xmlns="http://www.w3.org/2000/svg">
<path fill-rule="evenodd" clip-rule="evenodd" d="M24 6.37695C14.0629 6.37695 6 14.4399 6 24.377C6 34.314 14.0629 42.377 24 42.377C33.9176 42.377 42 34.314 42 24.377C42 14.4399 33.9176 6.37695 24 6.37695ZM35.8894 14.6741C38.0369 17.2902 39.3254 20.6286 39.3644 24.2403C38.8568 24.1427 33.7809 23.108 28.666 23.7522C28.5488 23.4984 28.4512 23.2251 28.3341 22.9518C28.0217 22.2099 27.6703 21.4485 27.3189 20.7262C32.9805 18.4225 35.5575 15.1036 35.8894 14.6741ZM24 9.03205C27.9046 9.03205 31.4772 10.4963 34.1909 12.8976C33.9176 13.288 31.5943 16.3922 26.128 18.442C23.6095 13.8151 20.8178 10.0277 20.3883 9.44203C21.5401 9.16871 22.7505 9.03205 24 9.03205ZM17.4599 10.4767C17.8698 11.0234 20.603 14.8303 23.1605 19.3596C15.9761 21.2728 9.63125 21.2338 8.94794 21.2338C9.94358 16.4702 13.1649 12.5071 17.4599 10.4767ZM8.61605 24.3965C8.61605 24.2403 8.61605 24.0841 8.61605 23.9279C9.27983 23.9474 16.7375 24.0451 24.41 21.7414C24.859 22.6004 25.269 23.4789 25.6594 24.3574C25.4642 24.416 25.2495 24.4746 25.0542 24.5331C17.128 27.0906 12.9111 34.0798 12.5597 34.6655C10.1193 31.9518 8.61605 28.3401 8.61605 24.3965ZM24 39.7609C20.4469 39.7609 17.167 38.5505 14.5705 36.5201C14.8438 35.954 17.9675 29.9409 26.6356 26.9149C26.6746 26.8954 26.6941 26.8954 26.7332 26.8759C28.9002 32.4789 29.7788 37.1839 30.013 38.531C28.1584 39.3314 26.128 39.7609 24 39.7609ZM32.5705 37.1253C32.4143 36.1882 31.5944 31.698 29.5835 26.1731C34.4057 25.4117 38.6226 26.6611 39.1497 26.8368C38.4859 31.1123 36.026 34.8021 32.5705 37.1253Z" fill="black"/>
</svg>
