<svg width="1152" height="200" viewBox="0 0 1152 200" fill="none" xmlns="http://www.w3.org/2000/svg">
<path d="M902.685 0.604531C980.192 0.563919 1052.61 32.57 1138.47 92.378L1142.57 95.2461L1142.99 95.5489C1151.67 101.99 1153.68 114.218 1147.42 123.111C1141.17 132.005 1128.98 134.25 1119.99 128.257L1119.56 127.965L1115.59 125.185C1032.44 67.2764 968.225 40.5703 902.706 40.6045C835.71 40.6396 763.672 68.6015 664.934 128.69C655.498 134.433 643.193 131.439 637.451 122.003C631.709 112.567 634.703 100.263 644.139 94.5205C744.528 33.4269 824.384 0.645626 902.685 0.604531Z" fill="black"/>
<path d="M268.517 0.604531C346.024 0.563919 418.441 32.57 504.304 92.378L508.402 95.2461L508.821 95.5489C517.504 101.99 519.512 114.218 513.257 123.111C507.002 132.005 494.816 134.25 485.818 128.257L485.393 127.965L481.419 125.185C398.275 67.2764 334.057 40.5703 268.538 40.6045C201.542 40.6396 129.504 68.6015 30.7656 128.69C21.3298 134.433 9.02542 131.439 3.28313 122.003C-2.45899 112.567 0.534944 100.263 9.97063 94.5205C110.36 33.4269 190.216 0.645626 268.517 0.604531Z" fill="black"/>
<path d="M1007.45 111.606C1007.45 160.422 967.88 199.996 919.064 199.996C870.247 199.996 830.674 160.422 830.674 111.606C830.674 62.7894 870.247 23.2158 919.064 23.2158C967.88 23.2158 1007.45 62.7894 1007.45 111.606Z" fill="black"/>
<path d="M385.218 111.606C385.218 160.422 345.644 199.996 296.828 199.996C248.011 199.996 208.438 160.422 208.438 111.606C208.438 62.7894 248.011 23.2158 296.828 23.2158C345.644 23.2158 385.218 62.7894 385.218 111.606Z" fill="black"/>
</svg>
