<svg width="401" height="97" viewBox="0 0 401 97" fill="none" xmlns="http://www.w3.org/2000/svg">
<path fill-rule="evenodd" clip-rule="evenodd" d="M0.163086 48.0841C1.22427 49.3248 2.58127 50.8564 4.22187 52.601C8.71274 57.3766 15.3265 63.7461 23.8128 70.1157C40.7878 82.8566 65.2335 95.5822 95.1593 95.5822C125.085 95.5822 149.531 82.8566 166.506 70.1157C174.992 63.7461 181.606 57.3766 186.097 52.601C187.737 50.8564 189.094 49.3248 190.156 48.0841C189.094 46.8433 187.737 45.3117 186.097 43.5671C181.606 38.7915 174.992 32.422 166.506 26.0524C149.531 13.3115 125.085 0.585938 95.1593 0.585938C65.2335 0.585938 40.7878 13.3115 23.8128 26.0524C15.3265 32.422 8.71274 38.7915 4.22187 43.5671C2.58127 45.3117 1.22427 46.8433 0.163086 48.0841Z" fill="white"/>
<circle cx="88.9797" cy="47.5461" r="19.4992" fill="black" stroke="black"/>
<path fill-rule="evenodd" clip-rule="evenodd" d="M210.171 49.0333C211.232 50.274 212.589 51.8056 214.23 53.5502C218.721 58.3258 225.334 64.6953 233.821 71.0649C250.796 83.8059 275.241 96.5314 305.167 96.5314C335.093 96.5314 359.539 83.8059 376.514 71.0649C385 64.6953 391.614 58.3258 396.105 53.5502C397.745 51.8056 399.102 50.274 400.163 49.0333C399.102 47.7925 397.745 46.2609 396.105 44.5163C391.614 39.7407 385 33.3712 376.514 27.0016C359.539 14.2607 335.093 1.53516 305.167 1.53516C275.241 1.53516 250.796 14.2607 233.821 27.0016C225.334 33.3712 218.721 39.7407 214.23 44.5163C212.589 46.2609 211.232 47.7925 210.171 49.0333Z" fill="white"/>
<circle cx="304.631" cy="48.6223" r="19.4992" fill="black" stroke="black"/>
</svg>
