<svg width="48" height="49" viewBox="0 0 48 49" fill="none" xmlns="http://www.w3.org/2000/svg">
<path d="M36.6517 11.6028L7.75346 22.7489C5.78111 23.5402 5.79281 24.6403 7.39396 25.1309L14.6013 27.3804L17.3589 35.8353C17.6942 36.7607 17.5289 37.1277 18.5007 37.1277C19.2506 37.1277 19.5833 36.7858 20.0009 36.3778C20.2666 36.1178 21.8436 34.5846 23.6044 32.8726L31.1013 38.4117C32.4809 39.1728 33.477 38.7785 33.8205 37.1305L38.7417 13.94C39.2455 11.92 37.9716 11.0038 36.6517 11.6028ZM15.7324 26.8636L31.9777 16.6143C32.7887 16.1225 33.5322 16.3869 32.9217 16.9289L19.0115 29.4794L18.4699 35.2562L15.7324 26.8636Z" fill="black"/>
</svg>
